<svg version="1.1" id="Layer_1" xmlns="http://www.w3.org/2000/svg" xmlns:xlink="http://www.w3.org/1999/xlink" x="0px" y="0px"
	 width="100%" viewBox="0 0 496 496" enable-background="new 0 0 496 496" xml:space="preserve">
<path fill="#000000" opacity="1.000000" stroke="none" 
	d="
M283.324677,230.642456 
	C277.625061,229.083359 272.284882,227.985092 266.699982,228.261322 
	C259.813995,228.601898 257.831390,230.676239 258.208405,237.535431 
	C258.424957,241.474838 257.907990,245.358841 260.231934,249.120117 
	C264.082245,255.351868 270.589600,255.450867 276.419891,256.497498 
	C296.072723,260.025604 315.770416,257.428619 335.442261,256.146820 
	C341.264282,255.767487 346.829102,255.683563 352.461121,258.429779 
	C357.856323,261.060547 364.076843,261.366730 370.071991,260.097321 
	C374.809265,259.094269 379.024567,260.694092 384.794189,261.449860 
	C379.377655,265.228394 374.366760,264.348724 369.845642,265.228363 
	C350.840851,268.925934 331.761536,267.075012 312.697876,265.495361 
	C310.743958,265.333466 308.671387,265.473511 306.773560,265.950073 
	C295.783051,268.709839 284.810211,268.514008 273.584229,267.214783 
	C255.139832,265.080139 236.836639,264.332611 218.022049,266.461914 
	C199.302994,268.580414 179.994614,270.927612 160.930069,265.835815 
	C154.316666,264.069489 147.045731,264.546448 140.067413,264.418274 
	C130.502365,264.242523 120.990036,262.078430 111.269112,263.608673 
	C115.172333,260.957184 119.490463,260.124786 124.025063,259.617432 
	C133.490128,258.558441 142.893570,258.941193 152.372467,259.589813 
	C174.344437,261.093353 196.165665,256.610352 218.166367,257.563568 
	C223.946854,257.814056 229.291489,254.415466 235.224823,254.234512 
	C237.651001,254.160538 238.788544,251.475967 239.844376,249.364105 
	C243.200531,242.651276 241.388794,233.103546 236.002335,229.219528 
	C233.645050,227.519714 231.238037,226.531448 228.106873,227.233444 
	C225.569931,227.802200 222.830124,227.621643 220.405548,226.650375 
	C218.930435,224.102386 221.452835,222.979935 222.097336,221.111008 
	C221.287384,218.978775 219.366425,218.009369 217.511566,216.946228 
	C214.996964,217.763611 213.455856,220.578522 210.514404,220.262115 
	C208.748672,218.432373 210.692520,216.776016 210.619720,214.766586 
	C205.456726,213.487534 200.444519,211.779327 196.953918,218.226654 
	C196.160004,219.693024 193.975571,221.717529 191.584824,219.174591 
	C189.999176,217.488022 188.537857,219.014603 187.149719,219.794830 
	C185.634201,220.646652 184.757095,222.655563 182.156265,222.297073 
	C183.169464,218.712875 187.441360,218.544464 188.876907,215.705948 
	C184.771103,213.183334 182.132568,213.676102 179.406937,217.386459 
	C176.548508,221.277557 173.921417,221.555862 170.536163,217.954849 
	C166.956238,220.499725 167.123840,225.809830 163.302597,228.128296 
	C161.218430,228.062805 161.434189,225.568771 159.876892,224.791077 
	C157.387024,225.082703 155.052689,227.129486 152.294098,225.851990 
	C151.637909,224.640228 153.343842,224.738693 153.321945,223.863144 
	C153.094086,223.766846 152.813461,223.527603 152.603729,223.578796 
	C150.990555,223.972580 149.349731,224.907410 147.794373,224.774521 
	C139.425690,224.059601 131.971069,226.651825 124.599945,230.228363 
	C121.917519,231.529907 119.204651,232.364197 116.999954,234.663712 
	C113.559052,238.252533 110.840584,237.896652 107.589745,234.052628 
	C110.813019,227.436371 118.419762,231.882156 123.019997,227.900238 
	C121.532692,227.645126 120.281075,227.430450 118.501442,227.125214 
	C120.226707,224.815720 118.101578,222.568604 119.047058,220.455322 
	C120.088875,219.257050 121.679855,219.295059 122.290627,219.999313 
	C126.323837,224.649719 131.298599,222.936050 135.854523,221.851974 
	C143.601257,220.008652 152.270416,221.347992 159.216492,215.470886 
	C156.615997,213.045731 154.373032,213.322556 151.432861,214.725113 
	C148.881729,215.942078 144.937653,219.265305 144.010971,212.461365 
	C143.754196,210.576080 140.956863,209.503937 139.044983,212.075302 
	C137.465714,214.199310 135.946930,216.391312 133.274841,217.416229 
	C130.895081,216.106949 130.775558,214.204605 131.335968,211.867081 
	C132.406464,207.401825 130.975967,205.944550 126.309364,206.491287 
	C119.720657,207.263214 117.168541,204.646790 118.117561,197.758301 
	C121.812309,198.586624 125.696922,198.812485 127.624352,202.917221 
	C128.076950,203.881088 128.889496,204.347061 129.958878,204.563141 
	C145.928818,207.790390 161.990707,210.515701 178.319244,210.522949 
	C186.070786,210.526382 193.831116,209.951111 201.244354,206.704437 
	C206.806320,204.268555 212.495438,203.733612 218.340302,207.522369 
	C222.753098,210.382843 227.782043,212.410446 232.377777,215.117844 
	C234.298691,216.249451 236.081833,218.287506 238.671448,216.464478 
	C239.664444,215.765442 240.824402,214.871719 240.230957,213.665710 
	C239.010269,211.185043 238.079681,208.286819 235.050232,207.306778 
	C232.734329,206.557526 230.066315,206.746063 228.271957,204.729248 
	C228.398239,201.690735 231.438324,202.152405 233.023315,200.750168 
	C231.969742,193.266632 224.485840,199.463013 221.852509,194.867554 
	C221.490463,192.955887 224.212372,192.823212 225.120911,190.912827 
	C224.486801,189.315567 223.859146,187.247482 221.207428,188.311676 
	C219.259506,189.093445 217.349457,191.114517 215.410446,189.035934 
	C213.579926,187.073685 217.047394,185.724854 216.663528,183.380066 
	C213.085098,182.202576 211.377823,184.349197 209.897278,187.078644 
	C209.067184,188.608948 208.781967,190.941895 206.414917,190.757172 
	C204.327988,190.594299 204.507843,188.323257 203.656174,186.769745 
	C200.111404,187.057556 197.715134,188.022903 198.517670,192.537064 
	C198.850586,194.409653 197.971313,196.491394 195.811829,197.223434 
	C193.881027,196.983521 193.928406,194.827896 192.524429,194.236862 
	C186.010971,195.648117 181.478180,200.979645 175.214172,202.838852 
	C174.105881,203.167816 173.064865,203.841125 171.944656,203.987808 
	C169.592697,204.295807 167.187317,203.588104 166.841187,201.113907 
	C166.401581,197.971786 169.690689,198.232574 171.129547,198.540756 
	C182.257202,200.924210 186.294678,190.680344 193.715042,185.857483 
	C189.655579,184.659180 185.576385,183.522568 181.546127,182.233093 
	C179.866867,181.695786 178.795609,182.495041 177.439651,183.229767 
	C174.918991,184.595596 172.921158,185.835632 169.817123,182.667892 
	C166.879700,179.670151 161.944046,181.163727 158.026428,182.842911 
	C154.970490,184.152771 152.327118,184.209229 150.059845,181.408081 
	C151.016037,178.256561 153.915207,177.956543 155.767487,178.617035 
	C159.816483,180.060837 163.575195,179.056503 167.501450,178.693130 
	C174.710938,178.025894 181.815811,178.934235 188.604324,181.430954 
	C193.779144,183.334137 198.782440,181.661316 203.848602,181.276749 
	C204.860733,181.199921 206.067169,180.684402 206.759949,179.076355 
	C200.180649,177.767670 194.190857,172.587967 187.874130,178.361649 
	C185.481689,176.091919 187.727722,174.504929 187.634460,173.170807 
	C182.038773,168.167068 177.863144,173.240005 173.759552,175.087952 
	C171.662659,174.026611 173.219940,172.208542 171.972153,171.257034 
	C168.985367,171.090210 166.109283,171.478470 163.547363,173.360184 
	C158.679245,176.935776 152.060074,176.660233 147.354935,180.680298 
	C146.569229,181.351593 145.371231,181.040558 144.551834,180.375275 
	C140.179932,176.825592 135.508530,178.100662 130.900406,179.587738 
	C127.470177,180.694702 124.783676,180.251511 122.730186,176.704758 
	C127.983559,173.026962 133.133575,176.439850 138.170410,176.321320 
	C139.799820,171.359268 140.499924,171.127914 144.741135,174.149719 
	C147.879303,176.385620 153.158249,174.654175 154.471176,170.894135 
	C155.035629,169.277618 156.222977,169.032150 157.626617,169.181244 
	C165.001923,169.964645 165.000824,169.975006 170.596893,167.006241 
	C167.751297,164.972290 164.969879,162.958313 162.159424,160.985733 
	C160.634430,159.915390 159.250595,159.078690 157.209503,160.444016 
	C155.341064,161.693832 152.711624,162.951630 150.874298,160.804810 
	C149.072021,158.698944 152.548035,157.632782 152.829163,155.493454 
	C150.548157,154.177338 148.308197,152.931992 145.466492,153.945526 
	C144.322754,154.353470 143.161484,154.117294 142.061798,153.629807 
	C140.143295,152.779358 139.108170,151.309357 139.676804,149.249115 
	C140.313522,146.942200 142.331543,147.765945 143.875397,147.857162 
	C145.256836,147.938812 146.311203,148.830917 147.281372,149.784836 
	C150.263412,152.716873 154.203934,153.374924 157.511566,154.585922 
	C159.724991,153.294754 159.212921,150.766663 161.138855,149.886505 
	C166.699173,150.896057 162.465652,158.625259 167.988922,159.834488 
	C171.954651,160.702713 175.396072,165.856781 179.841049,161.058182 
	C180.271164,161.152054 180.806656,161.134003 180.874496,161.303329 
	C182.953979,166.493042 186.778625,168.171341 192.273178,168.153717 
	C194.583740,168.146301 196.893997,170.574890 199.219162,171.869507 
	C201.486755,173.132095 203.830505,172.724121 205.950134,171.688217 
	C207.825287,170.771805 206.566711,169.087997 206.435837,167.641800 
	C203.957642,166.506042 200.608017,168.340775 198.683777,165.388916 
	C199.014786,162.072464 202.268936,162.389160 204.103302,161.033966 
	C202.098312,152.710144 196.594498,147.973785 188.511414,147.481979 
	C187.249130,147.405197 186.251709,147.642456 185.422287,148.656403 
	C183.492798,151.015121 180.935837,151.165131 178.227051,150.705231 
	C177.178207,145.874527 172.106369,142.561218 165.081406,142.313431 
	C161.936401,142.202530 159.583115,141.451797 158.857483,137.652603 
	C161.154312,136.264343 163.413681,136.331497 165.396118,137.717850 
	C169.041611,140.267227 173.327362,141.078186 177.327652,142.673691 
	C180.694687,144.016663 182.767639,143.599609 183.264572,139.772354 
	C186.823624,139.756393 187.500534,144.114563 191.170319,143.870911 
	C194.560333,143.645828 196.579163,142.718536 195.562775,139.247299 
	C194.003891,133.923309 193.051315,128.121140 187.916519,124.676987 
	C186.220383,123.539307 185.146042,122.315109 185.568222,120.194710 
	C185.783981,119.111023 186.404037,118.181946 187.559906,118.408951 
	C189.602158,118.810043 191.305374,119.911224 192.066666,121.962814 
	C194.593521,128.772278 197.858109,135.306076 199.345184,142.063110 
	C200.896439,143.452774 202.165909,141.185120 203.652832,142.798615 
	C202.795425,146.562027 201.999878,150.744324 206.804123,153.264221 
	C208.648422,152.965576 209.753876,150.495087 212.811523,151.345688 
	C211.372772,157.200027 207.791183,163.461685 214.246750,168.933151 
	C215.412537,168.947144 216.694534,166.440445 218.832855,168.137466 
	C218.879501,168.218918 219.213455,168.525589 219.175140,168.775070 
	C217.963837,176.661148 219.058289,178.366821 226.774826,181.091629 
	C229.255127,181.967468 230.148819,180.746140 230.659332,178.694153 
	C231.623093,174.820312 232.480911,170.917343 233.552979,167.073944 
	C235.009811,161.851044 231.156662,159.832489 227.633102,157.734024 
	C231.772141,153.051361 231.391815,151.999161 224.351395,147.599472 
	C224.129959,145.189392 229.560608,144.736801 226.785172,141.699020 
	C224.259689,138.934799 222.306610,134.834045 217.108154,136.244064 
	C214.680038,136.902679 213.359100,135.913239 212.327209,132.879227 
	C210.217560,126.676308 205.833618,121.693718 199.935120,118.580559 
	C196.624359,116.833176 195.224976,114.721024 196.068314,110.666786 
	C204.069839,111.972435 204.371323,121.338844 211.224747,123.707954 
	C212.662521,122.912971 213.015411,119.590317 216.306503,120.292702 
	C218.364960,123.067383 215.998825,126.466064 217.002411,129.168030 
	C218.108154,132.145035 221.490387,132.783539 224.724518,133.342682 
	C228.573334,130.894531 224.959702,120.525978 235.318573,123.716820 
	C231.870285,128.057312 227.706879,131.848129 229.640915,137.554703 
	C230.803329,140.984589 232.238235,144.393051 235.732162,146.472855 
	C239.605057,144.232803 240.290527,141.699203 235.616501,138.169876 
	C240.613815,138.063019 241.718735,135.685638 241.936707,132.360886 
	C242.109482,129.724930 242.494263,127.067131 243.138901,124.508202 
	C243.747101,122.093925 243.312073,120.857933 240.732162,120.110588 
	C237.302795,119.117180 236.832855,117.238808 240.101166,115.154381 
	C238.826767,110.794624 232.126556,110.040474 233.320526,104.012360 
	C236.108810,102.787231 238.301529,103.789108 238.398895,106.838333 
	C238.541183,111.293488 241.436371,113.126068 244.255310,115.028442 
	C251.636795,113.310760 248.964661,104.169266 254.972519,101.229881 
	C257.652374,103.606255 257.537231,106.077255 255.133102,108.033813 
	C251.150162,111.275261 249.432632,115.709534 247.742569,119.979271 
	C247.637085,122.317154 250.596527,121.956146 250.633911,123.930435 
	C245.931198,130.379272 245.925995,132.495453 251.277679,135.483994 
	C246.579346,140.606598 240.587341,145.423096 244.352234,154.231476 
	C236.905426,157.340897 238.989395,163.674011 239.613251,169.608353 
	C241.670715,170.498749 243.933609,168.883118 246.119919,171.605316 
	C238.605087,177.303955 234.096741,184.153473 242.006134,193.010330 
	C244.375626,192.924942 245.751709,189.641724 248.537918,191.343506 
	C249.471344,194.735565 244.675980,196.510941 245.743607,199.709961 
	C246.726959,202.656403 248.445084,205.382904 251.308426,207.329254 
	C255.331589,204.479675 255.509323,199.741760 257.666168,196.156097 
	C260.996643,190.619263 254.980087,188.873688 253.482086,185.858719 
	C254.370529,182.886719 257.106323,184.434540 258.782745,182.077698 
	C254.440384,175.722794 258.381927,166.513321 252.040207,160.402100 
	C252.673233,157.592880 255.407639,158.860214 256.670837,157.270294 
	C257.084076,152.669922 253.817108,148.099289 255.889679,143.320740 
	C256.281281,142.417847 256.988892,141.620438 258.413300,141.830597 
	C261.782959,144.827332 254.855560,148.549042 259.108917,151.643036 
	C264.240997,149.785767 262.896576,142.303665 268.139038,140.278915 
	C269.980438,142.243958 268.927307,143.653610 267.941040,145.276245 
	C262.205750,154.712021 259.038208,164.703186 261.775421,175.856888 
	C261.838623,176.114487 262.232819,176.290878 262.476685,176.501160 
	C267.725830,174.065872 267.276825,169.680893 266.048431,165.076752 
	C270.275574,163.352036 270.799103,167.153076 272.839844,169.338638 
	C276.883759,166.855774 278.891602,163.278885 278.613007,158.709976 
	C278.348602,154.373764 278.286499,150.164978 279.279297,145.870605 
	C280.208282,141.852066 276.078857,140.502319 274.022919,137.601044 
	C276.615662,132.463043 276.650696,127.635643 269.999969,124.538147 
	C272.553802,121.965874 272.755463,118.862686 273.212524,115.054947 
	C277.781158,121.075638 275.432007,128.757446 280.891571,135.189621 
	C281.869171,126.544701 288.438629,121.517021 288.915283,113.991074 
	C292.113159,113.004494 292.703522,115.306313 293.790894,116.802086 
	C295.180206,116.988831 295.112518,114.766045 296.867401,115.254364 
	C297.585480,118.025146 296.736633,120.589119 294.390259,122.043510 
	C291.779816,123.661568 291.245148,125.560287 292.247345,127.959305 
	C290.631165,129.897736 288.888519,128.491501 287.049194,128.799179 
	C285.346008,133.461212 287.114227,138.608337 285.402039,143.086914 
	C286.438507,144.702499 288.320435,143.132339 289.168243,144.758377 
	C289.457031,146.824814 288.284546,148.417419 286.974335,149.953918 
	C282.478729,155.225861 283.970032,159.751938 291.592377,161.398468 
	C287.466187,169.881821 279.972168,175.139008 273.208435,181.750534 
	C279.637085,184.217804 283.892670,180.559250 287.779846,178.243256 
	C292.045654,175.701691 293.337738,170.154739 295.979095,165.947617 
	C298.955505,161.206802 294.973053,156.034683 297.540619,151.431824 
	C301.582489,151.395615 301.688660,151.471283 304.763763,156.650848 
	C306.966553,156.326813 306.855835,154.257156 307.359009,152.863815 
	C309.544159,146.813370 312.882202,141.448303 317.096161,136.686508 
	C321.261108,131.980133 323.071991,132.151169 327.660248,137.246490 
	C324.294220,140.538666 316.802063,137.323318 316.077515,144.582901 
	C315.966949,146.402313 318.597900,145.281372 319.118439,146.958801 
	C319.204742,151.749466 311.926849,150.747070 311.740906,156.409256 
	C316.553955,154.973816 320.853882,153.147507 325.324890,152.496674 
	C330.819000,151.696930 328.796509,144.115616 334.140503,143.644531 
	C336.517426,144.389191 335.429840,146.768814 336.213104,148.213745 
	C343.227142,148.840561 342.210327,142.648926 343.619019,139.087097 
	C346.582184,138.709518 346.556915,141.557678 348.422607,142.220047 
	C353.285919,141.063812 351.224304,133.529816 356.980927,132.842056 
	C359.430023,136.789261 357.979431,139.525620 354.315857,141.762604 
	C347.845886,145.713211 341.789764,150.431717 334.048645,152.510147 
	C341.484558,154.552826 348.119537,159.133301 356.284302,157.268280 
	C359.878693,156.447220 361.730591,158.548340 362.883423,162.771912 
	C348.758057,161.098450 335.602051,154.745468 322.202545,158.573898 
	C319.907471,160.208893 322.192841,162.211670 320.291412,164.032150 
	C312.952850,160.952866 307.079559,163.559189 302.733124,170.217072 
	C303.268250,172.614655 306.490295,172.187866 306.743561,175.782471 
	C300.442902,176.268463 295.143677,179.405014 291.178772,184.881958 
	C291.228027,186.532669 293.675232,187.461548 292.908813,190.300690 
	C288.559692,190.550781 283.826965,188.408554 279.280365,190.418793 
	C276.860352,191.488785 274.196381,192.005661 271.772644,193.068893 
	C269.445862,194.089584 268.440247,196.291092 269.797729,198.413513 
	C271.154236,200.534393 273.354706,201.359100 275.671082,199.124130 
	C277.131195,197.715363 278.816345,196.634735 281.401306,197.229279 
	C281.025787,202.070328 283.657806,201.966446 287.550842,201.247482 
	C292.860046,200.266983 297.543640,197.825882 302.845154,195.835480 
	C302.664215,192.468948 303.061066,189.043945 307.420929,188.237030 
	C309.374664,189.381027 307.761414,191.191254 308.665131,192.582550 
	C309.001587,192.638031 309.568939,192.927048 309.918243,192.760071 
	C315.821167,189.937851 322.281921,187.981857 325.522644,181.352829 
	C327.062805,178.202377 328.646210,178.538376 331.129944,182.327164 
	C336.245178,181.098816 340.705750,178.989914 342.328461,173.254471 
	C349.162323,176.827713 352.475647,168.835983 358.446198,169.112625 
	C358.248352,174.395859 353.241882,173.018051 350.898193,175.003815 
	C348.411163,177.111038 345.459351,178.669754 341.710297,181.122345 
	C353.343048,184.681519 364.593384,183.582550 376.129547,186.063721 
	C373.177856,188.000305 370.990479,189.824219 371.886566,193.715469 
	C366.353302,189.764725 360.541351,187.522125 354.210999,187.650604 
	C352.468903,189.528061 354.510742,191.951096 352.316254,193.794113 
	C347.496857,192.181915 345.481964,184.722855 338.801788,186.387741 
	C336.704987,186.910339 334.587799,187.375671 333.066040,189.050659 
	C332.261169,190.946579 335.141754,191.768478 333.952942,194.294220 
	C328.433228,194.263901 321.551056,190.604721 317.045563,197.847763 
	C341.000885,206.865906 365.345734,206.605499 390.815918,199.964691 
	C389.073761,205.127167 386.561249,206.782883 383.403778,205.694092 
	C377.588257,203.688751 372.675110,207.385544 367.060760,207.474594 
	C378.140686,214.014786 388.064148,222.934082 402.879303,220.259583 
	C401.454956,223.430893 399.676392,224.046402 397.948120,223.390610 
	C392.884460,221.469208 389.656372,222.904739 388.372742,228.305664 
	C383.715668,227.208862 384.274567,221.489456 380.525696,220.267654 
	C377.247833,219.199356 373.336243,215.816376 371.128754,221.755966 
	C368.512177,221.398575 367.210510,219.541016 367.082306,217.717834 
	C366.784973,213.489273 364.095947,212.693817 360.752472,212.121155 
	C357.651520,211.590027 354.763336,210.053680 351.439880,210.040268 
	C349.678650,210.641129 351.375916,213.004776 348.695648,214.094742 
	C343.892975,208.307617 336.082550,209.934769 329.281647,207.988098 
	C321.948151,205.889053 314.502228,204.167389 307.066833,202.447479 
	C304.175476,201.778641 301.581665,202.885818 299.031830,204.384003 
	C291.914764,208.565704 284.244354,210.200333 275.991608,208.974808 
	C265.152954,207.365265 264.056366,208.080322 260.136200,218.688934 
	C268.903503,220.344254 275.446564,212.706100 283.634949,212.870712 
	C285.030426,213.798630 282.705383,214.717285 284.037018,215.519943 
	C286.969879,215.519943 289.957306,215.519943 292.993164,215.519943 
	C291.547668,211.775818 293.241119,210.156952 297.756226,210.767654 
	C299.183777,212.246109 296.520233,213.430145 297.605194,215.112366 
	C302.628815,216.081833 307.205505,212.478577 312.554474,212.827148 
	C312.061218,213.850220 311.738495,214.519623 311.309875,215.408630 
	C312.390442,215.461197 313.448151,215.263779 314.292419,215.600891 
	C316.726837,216.573029 317.439056,218.840210 316.523712,220.893158 
	C315.598297,222.968628 312.854950,222.749908 311.832336,221.389191 
	C308.479156,216.927429 304.080505,219.043549 300.135071,218.663712 
	C298.833527,220.369812 301.078217,221.603455 300.245178,223.304947 
	C295.357788,225.857117 292.620422,217.452896 287.039825,221.316025 
	C286.666901,222.368484 286.504333,224.563263 284.481659,225.922592 
	C293.003113,232.406769 303.818573,232.511337 312.605743,238.115448 
	C309.626678,241.458084 307.152405,241.195923 304.846649,238.861984 
	C303.372101,237.369431 301.747711,236.087738 299.754242,235.950897 
	C293.941925,235.551910 288.971863,232.738724 283.324677,230.642456 
z"/>
<path fill="#000000" opacity="1.000000" stroke="none" 
	d="
M300.400513,370.455414 
	C303.210388,373.544739 306.101685,376.118073 308.363129,379.159698 
	C310.367371,381.855408 311.830200,385.038208 310.274261,388.899750 
	C307.961090,383.135040 303.809631,378.993408 299.161713,374.946259 
	C295.372803,380.133514 298.338715,386.094757 296.569641,391.457550 
	C295.119751,386.578705 293.053284,381.730621 294.035461,376.537354 
	C295.999481,366.152557 293.174622,357.046783 288.288696,347.932220 
	C284.462189,340.793945 279.251221,336.450684 271.147278,335.043518 
	C276.244080,341.393738 278.614044,349.254517 283.350311,355.724548 
	C287.847229,361.867615 288.897430,368.520294 286.976196,375.906281 
	C285.373322,368.984497 283.608124,362.177246 279.121735,355.963135 
	C275.540771,368.517609 282.352570,378.370514 285.921661,389.044739 
	C282.176605,385.446655 280.899475,380.296814 276.645325,376.487183 
	C273.969940,381.734985 276.279846,387.224976 274.579834,393.626709 
	C272.580994,386.288788 272.519836,380.515381 273.719299,374.242188 
	C275.600189,364.405457 275.472290,354.522278 267.366638,346.752197 
	C265.651550,345.108093 264.566101,343.057678 263.577454,340.923950 
	C261.876068,337.252045 259.414307,334.248444 254.547577,331.443634 
	C257.289124,339.090363 260.362946,345.038788 264.386749,350.510132 
	C270.069977,358.237946 270.486786,366.806305 268.168579,375.647705 
	C267.192749,379.369354 266.395020,383.069153 266.163910,386.871704 
	C259.766022,387.859680 262.030670,395.345428 258.012909,397.899658 
	C256.859650,397.685852 256.698212,396.969482 256.950562,396.371552 
	C260.633240,387.645233 260.400269,378.125946 262.456665,369.062073 
	C264.003784,362.242981 261.461334,356.272705 256.332733,350.193756 
	C252.296555,358.747223 257.587585,365.051605 258.951691,372.213013 
	C254.426910,371.121948 255.494614,366.575317 252.806168,363.953552 
	C250.884827,369.725861 253.848312,376.044281 249.267487,382.036255 
	C247.928421,371.425171 249.777771,361.663788 247.244797,352.202209 
	C242.407837,357.264587 239.665482,363.027435 241.733627,369.757660 
	C244.187637,377.743652 245.107986,386.018890 247.112717,394.075562 
	C247.401138,395.234680 248.066238,396.586731 246.748123,398.113617 
	C244.385574,394.797485 243.816986,390.631042 240.999054,387.746552 
	C239.656036,388.168030 240.926041,390.041443 239.384354,390.472290 
	C239.179428,390.151855 238.807175,389.810516 238.728256,389.411255 
	C236.624680,378.769592 232.537292,368.299896 236.519119,357.177155 
	C237.485382,354.478058 238.342377,351.941406 240.346741,349.769318 
	C244.836014,344.904388 246.791519,338.791779 248.990311,332.528687 
	C248.001007,332.480988 247.533234,332.327881 247.410172,332.471069 
	C237.923126,343.508209 227.424438,354.256195 229.543121,370.519470 
	C230.403381,377.122742 232.220139,383.547089 230.255447,390.195282 
	C230.126724,390.630859 229.878876,391.031219 229.436127,391.990204 
	C227.527405,386.873962 230.169205,381.457092 226.897278,376.174896 
	C223.882812,381.356049 221.337433,385.730957 218.247360,391.042053 
	C217.143982,387.135773 218.290558,384.750885 219.823883,382.437439 
	C223.092728,377.505463 224.843674,371.950317 226.429230,366.330536 
	C227.385101,362.942566 226.477768,359.749237 224.996674,355.723694 
	C220.809998,362.307159 219.210190,369.221863 217.073944,376.070312 
	C215.772842,370.878357 214.830978,365.851257 218.232040,360.948181 
	C223.443253,353.435547 226.619293,344.667725 232.528519,337.564850 
	C232.996353,337.002533 233.066483,336.109344 233.457611,334.974945 
	C227.330826,335.426147 222.698318,338.496063 219.433258,342.444489 
	C211.356567,352.211578 207.975418,363.718170 209.893448,376.433289 
	C210.757339,382.160156 209.861465,387.476746 207.460236,392.664459 
	C205.913239,386.847626 210.263245,380.490997 205.476456,374.719727 
	C200.236847,378.390076 196.110855,382.719238 193.552094,388.631622 
	C192.787827,383.621979 195.025925,379.843628 198.331680,376.461609 
	C202.205460,372.498474 205.756256,368.424561 206.315186,362.478149 
	C206.548767,359.993011 206.626404,357.741852 204.570999,356.125275 
	C202.604385,354.578461 200.865387,356.163239 199.022522,356.852783 
	C194.299591,358.619965 191.479523,361.453735 192.261475,366.943207 
	C192.477539,368.460114 192.551926,370.333130 190.530197,371.120880 
	C188.908997,370.217590 190.263367,368.111877 188.445938,366.919617 
	C184.214905,368.558441 183.599487,374.025726 178.419739,376.881622 
	C179.741684,372.531403 182.023209,369.854492 183.696625,366.932373 
	C184.433243,365.646118 186.094910,364.504730 186.128296,363.265015 
	C186.304565,356.722412 190.788803,354.911743 195.930710,353.168182 
	C202.357727,350.988922 208.382156,348.057861 208.878342,339.410248 
	C198.884171,338.570831 197.595612,351.160980 188.544540,351.770782 
	C191.741379,346.296906 198.733704,343.791718 200.205994,337.066284 
	C192.802505,337.189880 185.790588,342.792542 184.224075,349.624084 
	C182.590073,356.750031 176.923157,361.878815 174.722839,368.770996 
	C174.065125,370.831207 173.490143,373.219513 170.819794,375.505035 
	C171.298569,367.336975 172.853821,360.435364 176.369568,353.907318 
	C171.805984,352.360260 170.977005,356.789368 168.173676,358.368378 
	C166.987686,354.360535 169.438339,352.494141 171.808456,350.765320 
	C175.032410,348.413544 178.441330,346.316986 181.703323,344.015228 
	C184.005798,342.390594 185.241394,340.123871 185.227676,336.502472 
	C177.285034,338.700043 171.145142,341.683716 165.668015,348.666870 
	C159.970566,355.930908 161.465424,363.143158 161.280701,371.453949 
	C157.645157,368.113892 158.965195,364.328186 158.119629,361.174805 
	C157.202164,357.753204 159.003891,354.333893 158.842377,350.608490 
	C151.039215,350.532257 147.931183,356.756439 143.330215,361.194458 
	C144.451599,356.585754 146.338989,352.516144 149.085052,348.856171 
	C152.034668,344.924866 157.700912,346.750763 161.351273,343.870056 
	C159.104752,340.858002 156.549255,345.105103 154.676727,342.609711 
	C154.960922,339.804993 158.191696,341.424194 159.118759,339.867065 
	C152.330582,337.414734 147.538528,341.428040 141.855637,346.521515 
	C143.503128,337.413147 151.672394,336.486511 155.499374,331.312805 
	C146.419754,330.658020 138.673309,333.032898 132.749435,340.557953 
	C132.298004,337.087830 136.501328,330.897156 140.219299,329.382629 
	C152.841187,324.241028 165.711533,323.492615 178.718292,327.780579 
	C181.348465,328.647675 184.037064,329.297363 186.533966,328.368011 
	C191.389084,326.560974 196.346024,326.766907 201.335159,326.767639 
	C237.000504,326.773071 272.688660,326.062195 308.317352,327.205231 
	C319.040619,327.549255 329.220825,325.935699 339.654022,325.178528 
	C347.896820,324.580353 356.023193,325.861938 363.494537,329.383118 
	C367.654297,331.343628 370.193787,335.334503 371.894867,340.003204 
	C365.265625,333.182281 357.258179,330.756653 348.077881,331.177795 
	C352.882477,336.318848 360.553802,338.278015 363.108887,346.350159 
	C357.131989,344.585785 353.887543,336.487061 346.466797,339.959900 
	C347.482849,341.233002 349.933716,340.292297 350.318481,342.674194 
	C347.708923,344.387146 344.919678,341.095947 342.136047,342.972626 
	C343.489777,347.089966 347.429504,344.973694 349.993408,346.011475 
	C353.248016,347.328827 355.744080,349.258240 357.270172,352.439911 
	C358.593292,355.198486 360.429230,357.751648 360.470093,361.352753 
	C355.999237,356.937927 353.075195,350.455902 345.213287,350.634644 
	C344.790039,357.444519 348.483612,364.478912 343.400787,370.838806 
	C342.022369,363.319458 344.029480,355.704681 338.141602,348.513000 
	C332.725586,341.897675 326.711090,338.746613 318.568146,336.108185 
	C320.000244,341.489288 322.906311,344.486694 326.547852,346.928009 
	C329.448639,348.872742 332.594574,350.511719 334.893738,353.225494 
	C336.033875,354.571198 337.194458,356.007233 336.931366,358.364899 
	C333.507782,358.161224 333.786865,352.600952 329.377716,354.020782 
	C330.927551,360.564667 331.930908,367.221375 334.456604,373.405182 
	C333.007111,374.080017 332.513611,373.517944 332.277649,372.963928 
	C329.730408,366.983215 325.706573,361.711090 323.244324,355.805695 
	C320.303375,348.752197 315.821777,342.935608 311.380096,336.979218 
	C309.162964,334.005981 306.483185,335.407806 303.161469,336.324066 
	C306.655640,342.806519 312.132935,347.047821 316.676605,352.568085 
	C307.223297,351.558228 305.040039,339.356079 294.856232,339.266571 
	C295.763550,344.512360 297.285980,348.624023 302.215607,350.627319 
	C304.834320,351.691528 307.316833,353.208099 310.018860,353.923279 
	C314.311157,355.059265 316.551697,357.380035 317.891083,361.790161 
	C319.344574,366.576172 324.368256,369.804230 324.682861,375.846985 
	C320.483002,372.944946 319.626526,366.025757 312.893860,366.605286 
	C312.963531,360.465088 308.906921,357.883881 303.889099,356.155304 
	C299.762177,354.733643 297.438446,356.272827 297.384125,360.690369 
	C297.342285,364.092712 298.516693,367.215454 300.400513,370.455414 
M168.896042,337.509888 
	C170.485565,336.776520 172.291885,336.220184 171.932114,333.592773 
	C168.597397,333.082611 166.040344,333.948303 164.249100,336.969940 
	C165.646347,338.055542 166.970947,337.507416 168.896042,337.509888 
M335.375854,337.250732 
	C336.819489,337.648376 338.275604,338.110474 339.528656,336.295624 
	C337.971375,333.429688 335.752930,332.893768 332.764679,333.984070 
	C332.861389,335.631195 333.797028,336.289398 335.375854,337.250732 
z"/>
<path fill="#000000" opacity="1.000000" stroke="none" 
	d="
M320.082092,291.270660 
	C320.459290,297.021362 320.870148,302.338562 318.772217,307.457977 
	C315.817780,314.667633 310.767273,319.475586 302.857391,320.096069 
	C294.807220,320.727539 288.679718,317.120758 284.854095,309.935272 
	C283.787811,307.932587 283.024139,305.768768 281.956696,303.296906 
	C279.922302,308.702911 277.826263,313.805298 273.037231,316.966309 
	C263.400330,323.327179 251.791199,320.153748 246.290009,309.755768 
	C240.734344,299.254761 242.878830,284.606079 251.018173,277.458252 
	C259.183502,270.287628 271.583618,271.863556 277.614288,280.935059 
	C279.166199,283.269470 280.354553,285.845642 281.658997,288.218201 
	C282.805969,288.531586 282.833527,287.668396 283.055267,287.134369 
	C287.928650,275.398956 294.445770,271.391418 306.759979,272.953583 
	C310.552734,273.434723 313.042542,276.533264 315.797211,278.839905 
	C317.256683,280.061981 315.871582,281.574432 314.960358,282.761200 
	C313.573822,284.566986 311.484985,285.909210 311.147644,288.459473 
	C313.637909,291.056976 317.540222,288.206238 320.082092,291.270660 
M278.725494,299.166290 
	C278.704895,296.842285 278.845306,294.503540 278.634552,292.196899 
	C277.895630,284.110199 271.503723,277.009216 264.485901,276.320465 
	C256.854797,275.571503 250.006256,280.540527 247.522812,288.825714 
	C245.428741,295.811951 245.888718,302.648865 249.623886,309.017365 
	C251.786575,312.704742 254.752426,315.413635 259.289429,316.138672 
	C269.844208,317.825317 277.036499,311.932709 278.725494,299.166290 
M285.088043,297.441833 
	C285.152313,298.603821 285.175751,299.769745 285.287201,300.927185 
	C286.252411,310.949768 293.994019,317.629547 303.419159,316.588928 
	C311.753082,315.668793 318.558868,305.645172 317.198456,296.467834 
	C316.838379,294.038544 316.108765,292.213776 313.275116,292.403992 
	C310.234955,292.608093 306.701721,291.659668 304.787201,295.077911 
	C303.894562,296.671570 304.093475,298.410004 306.351196,298.957031 
	C308.933197,299.582703 308.714264,301.422241 308.207123,303.265320 
	C307.456940,305.991608 306.048889,308.081635 302.854309,308.373138 
	C299.513062,308.678101 296.821625,307.704071 295.574860,304.456848 
	C294.196808,300.867676 293.519287,297.109558 294.198914,293.227875 
	C295.501434,285.789124 298.093384,284.042297 305.291382,285.924438 
	C308.991394,286.891846 309.728943,283.650970 311.125488,281.727081 
	C312.442139,279.913208 310.670563,278.646942 309.220428,277.832550 
	C302.063446,273.813080 292.485443,276.531494 288.260803,283.638336 
	C285.885895,287.633545 285.036957,291.963501 285.088043,297.441833 
M300.842529,296.391663 
	C301.457642,293.780823 302.072784,291.169952 302.768280,288.217865 
	C298.244080,288.729828 297.413452,291.606934 297.368530,294.675171 
	C297.314392,298.374420 296.312195,302.565582 300.462616,304.989166 
	C301.897278,305.826843 303.360260,305.690002 304.066193,303.044708 
	C300.044312,302.806183 299.645142,300.323425 300.842529,296.391663 
z"/>
<path fill="#000000" opacity="1.000000" stroke="none" 
	d="
M200.591797,272.203979 
	C212.236298,271.672882 211.973831,271.618713 209.770370,282.293701 
	C208.798615,287.001404 206.817657,289.016022 202.074844,288.341248 
	C201.173538,288.213013 200.031174,288.051453 199.165100,289.460846 
	C201.071381,291.248779 203.496094,290.621246 205.586655,290.517456 
	C209.858948,290.305237 210.711441,292.255341 210.011826,296.026581 
	C208.893387,302.055603 208.867828,302.179230 198.661407,303.800568 
	C201.987839,305.240448 204.582016,304.699615 207.026505,304.748535 
	C210.003479,304.808105 210.852600,306.216187 210.253876,308.902039 
	C210.217667,309.064514 210.185150,309.227966 210.156448,309.391937 
	C208.396637,319.439789 208.396683,319.440277 197.970016,319.411957 
	C194.473038,319.402466 190.969849,319.255615 187.480835,319.416931 
	C184.118912,319.572388 182.925049,317.975464 183.271942,314.889832 
	C184.151291,307.068298 184.160706,299.096130 182.859833,291.498840 
	C182.031418,286.660797 181.751633,282.334106 182.846603,277.677307 
	C183.578491,274.564789 185.018356,273.222198 188.394104,273.538422 
	C192.343399,273.908386 196.394485,274.141571 200.591797,272.203979 
M190.629700,316.469879 
	C194.615891,316.404907 198.609726,316.469696 202.585938,316.235260 
	C205.969177,316.035797 206.249390,313.121094 206.437256,310.717499 
	C206.683304,307.569305 203.983994,308.279602 202.141663,308.071838 
	C201.154648,307.960510 200.145828,307.992462 199.149109,308.026367 
	C196.227325,308.125793 194.871460,306.733673 194.894730,303.815613 
	C194.917465,300.964233 196.091995,299.451599 199.118896,299.644928 
	C200.609039,299.740112 202.117691,299.704498 203.608246,299.595459 
	C205.646133,299.446411 206.454422,298.082672 206.541702,296.216125 
	C206.636368,294.191650 205.315643,293.734192 203.627655,293.674133 
	C201.966721,293.615021 200.306458,293.376465 198.649353,293.406525 
	C195.825180,293.457764 194.862595,292.016022 194.866211,289.377289 
	C194.870056,286.579071 195.885406,284.911713 198.899796,284.909363 
	C200.396317,284.908203 201.933456,285.041656 203.381638,284.756134 
	C207.755096,283.893860 207.221954,279.925232 207.155228,277.164673 
	C207.090561,274.488892 204.101700,275.037079 202.317307,275.632690 
	C198.869492,276.783569 195.387772,276.261353 191.924316,276.365784 
	C186.623001,276.525665 183.843109,279.716980 185.487488,284.626007 
	C186.265442,286.948456 186.355148,289.154297 186.366501,291.450623 
	C186.401047,298.439178 186.418335,305.428711 186.331451,312.416473 
	C186.299713,314.969269 186.863861,316.722595 190.629700,316.469879 
z"/>
<path fill="#000000" opacity="1.000000" stroke="none" 
	d="
M233.527725,304.507538 
	C235.650055,303.201508 236.004700,300.505096 238.643097,299.893097 
	C241.181992,303.612152 242.224823,307.988312 243.692459,312.168365 
	C244.576187,314.685425 242.648727,315.764740 240.951904,316.840332 
	C230.021072,323.769104 217.007782,319.307220 212.828018,306.549957 
	C210.061127,298.104980 210.720993,289.563812 215.394302,281.509430 
	C219.771484,273.965424 232.765793,269.341705 241.699173,275.159668 
	C243.175735,276.121277 244.782059,276.974976 244.041031,278.973236 
	C242.440369,283.289551 241.643356,287.950134 238.840866,292.039032 
	C238.110962,291.747467 237.396896,291.661652 236.984344,291.263458 
	C235.033585,289.380615 233.090652,287.254333 230.067459,288.552246 
	C226.983566,289.876221 226.799164,293.061310 226.475479,295.785736 
	C225.735397,302.014679 228.625412,305.624054 233.527725,304.507538 
M222.946320,278.240173 
	C214.883682,285.099457 212.059814,296.435028 215.955948,306.300903 
	C219.213654,314.550140 227.558670,318.743225 235.283463,316.012390 
	C241.008804,313.988312 241.569077,311.358826 237.206635,306.698151 
	C233.357208,308.153290 229.344040,310.178619 225.849503,306.100708 
	C222.765640,302.502045 222.498947,292.776367 225.212158,288.429352 
	C228.422928,283.285126 232.998550,284.636017 237.352112,286.212250 
	C241.306885,279.931702 241.193314,277.414825 236.710144,276.679810 
	C232.367020,275.967834 227.765381,275.244171 222.946320,278.240173 
z"/>
<path fill="#000000" opacity="1.000000" stroke="none" 
	d="
M109.182388,224.991394 
	C110.196510,226.217529 111.617584,227.105133 110.234116,228.533585 
	C108.760994,230.054626 106.835678,230.570358 104.805229,230.294998 
	C102.189140,229.940170 99.617683,228.637589 99.650757,225.905106 
	C99.689445,222.709625 102.810257,223.983521 104.711731,223.726883 
	C106.189934,223.527374 107.668144,223.778259 109.182388,224.991394 
z"/>
<path fill="#000000" opacity="1.000000" stroke="none" 
	d="
M227.683777,114.871902 
	C228.251572,116.938614 229.036224,118.928223 226.622391,119.734818 
	C224.498322,120.444588 223.028778,118.071465 221.838654,112.117203 
	C224.568527,111.001907 225.935013,113.009941 227.683777,114.871902 
z"/>
<path fill="#000000" opacity="1.000000" stroke="none" 
	d="
M296.258789,108.601929 
	C297.611023,106.823639 298.171234,104.422272 300.748962,104.944527 
	C301.790741,105.155594 302.184357,106.258057 302.183868,107.318726 
	C302.182953,109.393936 301.025208,110.792244 299.226257,111.514488 
	C296.812805,112.483444 295.755493,111.486473 296.258789,108.601929 
z"/>
<path fill="#000000" opacity="1.000000" stroke="none" 
	d="
M328.692871,123.444290 
	C329.869934,124.194405 330.330536,125.046356 330.447021,126.088051 
	C330.655762,127.954781 329.897430,129.332489 328.253021,130.183273 
	C327.250458,130.701965 326.297150,130.506134 325.592834,129.601501 
	C324.311218,127.955345 325.092926,126.466667 326.042480,125.032974 
	C326.599823,124.191521 327.257965,123.440384 328.692871,123.444290 
z"/>
<path fill="#000000" opacity="1.000000" stroke="none" 
	d="
M275.787964,104.651810 
	C276.073914,105.480621 276.187042,105.962059 276.196960,106.445618 
	C276.240631,108.577705 276.470032,111.037712 273.765808,111.604523 
	C271.888916,111.997925 271.301910,110.112091 271.308563,108.678383 
	C271.320892,106.018158 272.125397,103.784897 275.787964,104.651810 
z"/>
<path fill="#000000" opacity="1.000000" stroke="none" 
	d="
M380.000488,185.404358 
	C382.284637,183.064957 384.626282,183.587051 387.037262,184.232971 
	C387.498901,187.237549 385.627930,187.942352 383.570465,188.183167 
	C381.802002,188.390167 379.661316,188.715408 380.000488,185.404358 
z"/>
<path fill="#000000" opacity="1.000000" stroke="none" 
	d="
M141.527603,226.286041 
	C142.590698,226.605118 143.328552,226.878693 144.566757,227.337784 
	C141.830322,229.374496 139.942719,232.213272 136.204544,229.729462 
	C137.115982,227.185272 139.141556,226.688095 141.527603,226.286041 
z"/>
<path fill="#000000" opacity="1.000000" stroke="none" 
	d="
M316.016968,213.004395 
	C316.409729,209.537369 316.409729,209.537369 321.211670,210.509308 
	C321.127899,214.258926 319.059692,214.308762 316.016968,213.004395 
z"/>
<path fill="#000000" opacity="1.000000" stroke="none" 
	d="
M269.308868,292.041168 
	C270.283813,296.450897 269.900513,300.377411 268.589142,304.220337 
	C267.712433,306.789490 266.074493,308.467407 263.138306,308.566650 
	C260.086456,308.669830 258.078003,307.263519 256.870087,304.547760 
	C255.179245,300.746307 255.063705,296.753418 255.773376,292.771698 
	C256.432037,289.075958 257.530243,285.339111 262.108154,284.890778 
	C266.837219,284.427612 268.361389,287.808655 269.308868,292.041168 
M259.187988,292.792023 
	C257.926544,295.908905 258.468475,298.974976 259.449829,302.027985 
	C259.988342,303.703430 260.815216,305.161499 262.835876,305.086182 
	C264.585449,305.020935 265.367554,303.715576 265.855103,302.210724 
	C266.903168,298.975708 266.963837,295.657104 266.254608,292.392029 
	C265.875000,290.644531 265.102631,288.690094 262.897217,288.552429 
	C260.628937,288.410858 259.892700,290.226868 259.187988,292.792023 
z"/>
</svg>